<svg xmlns="http://www.w3.org/2000/svg" viewBox="0 0 16 16"><defs><style>.cls-1{fill:#1b211a;}.cls-2{fill:#1b1b1b;}.cls-3{fill:#628141;}.cls-4{fill:#eee;}</style></defs><g id="Layer_2" data-name="Layer 2"><g id="Layer_1-2" data-name="Layer 1"><rect class="cls-1" width="7.68" height="7.66" rx="1.6"/><rect class="cls-1" x="8.32" width="7.68" height="7.66" rx="1.6"/><rect class="cls-2" x="8.32" y="8.34" width="7.68" height="7.66" rx="1.6"/><path class="cls-3" d="M0,8.3A7.67,7.67,0,0,1,7.68,16C7.63,7,8.94,8.37,0,8.3Z"/><path class="cls-4" d="M5.44,3.83a1.6,1.6,0,0,1-3.2,0A1.6,1.6,0,0,1,5.44,3.83Z"/><rect class="cls-4" x="10.56" y="2.23" width="3.2" height="3.2" rx="0.53"/><path class="cls-4" d="M11.79,10.68c.62-.85,1.06.76,1.3,1.11s1.23,1.76.26,1.86H11c-1-.1.15-1.45.26-1.86Z"/></g></g></svg>