<svg xmlns="http://www.w3.org/2000/svg" viewBox="0 0 427.3 100"><defs><style>.cls-1{fill:#1b211a;}.cls-2{fill:#efeeee;}</style></defs><g id="Layer_2" data-name="Layer 2"><g id="Layer_1-2" data-name="Layer 1"><g id="Logo"><path class="cls-1" d="M10,9.63H38a10,10,0,0,1,10,10V47.54a10,10,0,0,1-10,10H10a10,10,0,0,1-10-10V19.61A10,10,0,0,1,10,9.63Z" transform="translate(0 -9.63)"/><path class="cls-1" d="M62,9.63H90a10,10,0,0,1,10,10V47.54a10,10,0,0,1-10,10H62a10,10,0,0,1-10-10V19.61A10,10,0,0,1,62,9.63Z" transform="translate(0 -9.63)"/><path class="cls-1" d="M62,61.75H90a10,10,0,0,1,10,10V99.65a10,10,0,0,1-10,10H62a10,10,0,0,1-10-10V71.72A10,10,0,0,1,62,61.75Z" transform="translate(0 -9.63)"/><path class="cls-1" d="M0,61.51a47.94,47.94,0,0,1,48,47.88C47.72,53.2,55.86,61.92,0,61.51Z" transform="translate(0 -9.63)"/><path class="cls-2" d="M34,33.57c-.06,13.08-19.94,13.08-20,0S33.94,20.49,34,33.57Z" transform="translate(0 -9.63)"/><rect class="cls-2" x="66" y="13.94" width="20" height="20" rx="3.33"/><path class="cls-2" d="M73.7,76.36c3.83-5.3,6.62,4.76,8.1,7,.71,2.55,7.68,11,1.62,11.6H68.58c-6.06-.62.9-9,1.62-11.6Z" transform="translate(0 -9.63)"/><path class="cls-1" d="M140.17,41.88v3.77c-.06,8-4.87,12-14.36,12-8.64.07-13-4.48-13.06-13.72V41.5H125v3.31c0,1.3.48,1.88,1.36,1.88a.88.88,0,0,0,.24,0c.79-.12,1.11-.81,1.11-2V42.94a1.81,1.81,0,0,0-1.18-1.7L125,40.69l-6.09-2.22a10,10,0,0,1-6.46-9.31V25c.19-8.52,4.67-12.74,13.51-12.74,9.42-.07,14.11,4.09,14.17,12.42l-.06,4.54H127.66v-4c0-1.3-.48-1.88-1.36-1.88h0c-.81,0-1.3.55-1.3,2.08V28.1a1.81,1.81,0,0,0,1.18,1.7l7.52,2.74A10,10,0,0,1,140.17,41.88Z" transform="translate(0 -9.63)"/><path class="cls-1" d="M169.29,12.89l0,30.55c-.07,9.35-4.49,14.1-13.13,14.29-9.49.26-14.3-4.54-14.36-14.29l0-30.55h12.38V44.67c0,1.36.39,2.08,1.36,2s1.35-.65,1.35-2V12.89Z" transform="translate(0 -9.63)"/><path class="cls-1" d="M198.86,28.8c0,13.22-3.63,16.87-10.33,16.87h-2.61V57.08H171.44V12.89h16.7C195.35,12.89,198.86,15.57,198.86,28.8Zm-14.41-4.86V35.28h.9c1.24,0,1.8-1,1.8-2.21V25.69a1.65,1.65,0,0,0-1.8-1.75Z" transform="translate(0 -9.63)"/><path class="cls-1" d="M214.07,44.23h7.4V57.08h-21V12.89h21v12h-7.4v4.69h6.56v9.62h-6.56Z" transform="translate(0 -9.63)"/><path class="cls-1" d="M252.61,57.08H239.53l-2.71-20.83h-.9l.9,20.83H223.24V12.88h20c7.11,0,8.43,7.75,8.43,11.4,0,4.84-1.65,8.57-5.55,9.7h3.14ZM239,26.2c0-1-.45-2.27-1.86-2.27h-.85v6.83h.82c1.47,0,1.89-1.43,1.89-2.33Z" transform="translate(0 -9.63)"/><path class="cls-1" d="M282.59,40.51h-2.72V57.08H266.29V12.89h13.58V29.46h2.72V12.89h13.58V57.08H282.59Z" transform="translate(0 -9.63)"/><path class="cls-1" d="M325.81,12.89l0,30.55c-.07,9.35-4.49,14.1-13.13,14.29-9.49.26-14.3-4.54-14.37-14.29l0-30.55H310.7V44.67c0,1.36.39,2.08,1.35,2s1.36-.65,1.36-2V12.89Z" transform="translate(0 -9.63)"/><path class="cls-1" d="M365.33,12.89V57.08h-11.9l2.15-27.23h-.91l-.9,8.06-3.49,19.17H343l-3.49-19.17-.9-8.06h-.91l2.15,27.23H328V12.89h17.22l1,25h.9l1-25Z" transform="translate(0 -9.63)"/><path class="cls-1" d="M383.28,57.08l-.41-10.39h-2.75l-.41,10.39H366.87l2.34-44.19h24.57l2.34,44.19Zm-.65-21.44L382,23.22H381l-.59,12.42Z" transform="translate(0 -9.63)"/><path class="cls-1" d="M427.3,12.89v44.2h-15l-3.5-19.18-.9-8.06H407l2.14,27.24H397.67V12.89h15l3.5,19.17.9,8.06h.9l-2.14-27.23Z" transform="translate(0 -9.63)"/><path class="cls-1" d="M140.73,95.61c-.06,8.12-3.18,12.35-9.35,12.47H112.92V63.89h18.79c6,0,8.38,4.8,8.38,10.83,0,7.8-4.36,10-4.36,10C139.18,86.12,140.8,89.76,140.73,95.61ZM129.21,77.2c0-1-.45-2.27-1.86-2.27h-.85v5.93h.82c1.46,0,1.89-1.43,1.89-2.33Zm0,15.27c0-1-.45-2.27-1.86-2.27h-.85V97h.82c1.46,0,1.89-1.44,1.89-2.34Z" transform="translate(0 -9.63)"/><path class="cls-1" d="M155.9,95.23h7.4v12.85h-21V63.89h21v12h-7.4v4.69h6.56v9.62H155.9Z" transform="translate(0 -9.63)"/><path class="cls-1" d="M194.69,63.89v44.2h-15l-3.5-19.18-.89-8.06h-.91l2.14,27.24H165.07V63.89h15l3.5,19.17.89,8.06h.9l-2.13-27.23Z" transform="translate(0 -9.63)"/><path class="cls-1" d="M223.88,86.44l0,8c-.07,9.35-4.49,14.1-13.13,14.29-9.49.26-14.3-4.54-14.36-14.29l.06-16.32c.2-9.94,4.94-15,14.3-14.88,9-.07,13.32,4.94,13.2,14.95l0,5.54h-12.4V76.17c0-1.3-.48-1.88-1.35-1.88s-1.36.71-1.36,2.08v19.3c0,1.37.39,2.08,1.36,2s1.35-.65,1.35-2v-9.3Z" transform="translate(0 -9.63)"/><path class="cls-1" d="M241.85,91.51h-2.72v16.57H225.55V63.89h13.58V80.46h2.72V63.89h13.59v44.19H241.85Z" transform="translate(0 -9.63)"/><path class="cls-1" d="M294.91,63.89v44.19H283l2.15-27.23h-.9l-.91,8.06-3.49,19.17h-7.28l-3.49-19.17-.9-8.06h-.91l2.15,27.23H257.54V63.89h17.22l1,25h.9l1-25Z" transform="translate(0 -9.63)"/><path class="cls-1" d="M312.86,108.08l-.4-10.39h-2.75l-.41,10.39H296.46l2.34-44.19h24.56l2.34,44.19Zm-.65-21.44-.58-12.42h-1.09L310,86.64Z" transform="translate(0 -9.63)"/><path class="cls-1" d="M356.63,108.08H343.55l-2.71-20.83h-.9l.9,20.83H327.25V63.88h20c7.1,0,8.43,7.75,8.43,11.4,0,4.84-1.65,8.57-5.55,9.7h3.13ZM343,77.2c0-1-.45-2.27-1.86-2.27h-.85v6.83h.82c1.46,0,1.89-1.43,1.89-2.33Z" transform="translate(0 -9.63)"/><path class="cls-1" d="M387.71,63.89,382.51,85,385,85l2.81,23.1H374.7L372,87.25h-.9l.9,20.83H358.4V63.89H372V78.51h.9l1.69-14.62Z" transform="translate(0 -9.63)"/></g></g></g></svg>