<svg id="Layer_1" data-name="Layer 1" xmlns="http://www.w3.org/2000/svg" viewBox="0 0 427.3 100"><defs><style>.cls-1{fill:#eee;}.cls-2{fill:#628141;}.cls-3{fill:#1b1b1b;}</style></defs><g id="Logo"><path class="cls-1" d="M18.29,22.12h28a10,10,0,0,1,10,10V60a10,10,0,0,1-10,10h-28a10,10,0,0,1-10-10V32.09A10,10,0,0,1,18.29,22.12Z" transform="translate(-8.29 -22.12)"/><path class="cls-1" d="M70.29,22.12h28a10,10,0,0,1,10,10V60a10,10,0,0,1-10,10h-28a10,10,0,0,1-10-10V32.09A10,10,0,0,1,70.29,22.12Z" transform="translate(-8.29 -22.12)"/><path class="cls-1" d="M70.29,74.23h28a10,10,0,0,1,10,10v27.93a10,10,0,0,1-10,10h-28a10,10,0,0,1-10-10V84.21A10,10,0,0,1,70.29,74.23Z" transform="translate(-8.29 -22.12)"/><path class="cls-2" d="M8.29,74a48,48,0,0,1,48,47.89C56,65.69,64.15,74.41,8.29,74Z" transform="translate(-8.29 -22.12)"/><path class="cls-3" d="M42.29,46.06c-.06,13.08-19.95,13.08-20,0S42.23,33,42.29,46.06Z" transform="translate(-8.29 -22.12)"/><rect class="cls-3" x="66" y="13.94" width="20" height="20" rx="3.33"/><path class="cls-3" d="M82,88.85c3.84-5.3,6.63,4.76,8.1,7,.72,2.55,7.69,11,1.63,11.6H76.87c-6.06-.62.9-9,1.62-11.6Z" transform="translate(-8.29 -22.12)"/><path class="cls-1" d="M148.46,54.36v3.78c-.06,8-4.87,12-14.36,12-8.65.06-13-4.49-13.06-13.72V54h12.23V57.3c0,1.3.48,1.87,1.35,1.87a1,1,0,0,0,.25,0c.78-.12,1.11-.81,1.11-2V55.43a1.82,1.82,0,0,0-1.19-1.7l-1.52-.56L127.18,51a9.93,9.93,0,0,1-6.47-9.3V37.47c.19-8.52,4.68-12.75,13.52-12.75,9.42-.06,14.1,4.1,14.17,12.42l-.07,4.54H135.94v-4c0-1.3-.48-1.88-1.35-1.88h-.06c-.8,0-1.3.55-1.3,2.08v2.73a1.81,1.81,0,0,0,1.18,1.7L141.93,45A10,10,0,0,1,148.46,54.36Z" transform="translate(-8.29 -22.12)"/><path class="cls-1" d="M177.58,25.38l0,30.54c-.07,9.36-4.49,14.11-13.13,14.3-9.49.26-14.3-4.55-14.37-14.3l0-30.54h12.39V57.16c0,1.36.38,2.08,1.35,2s1.36-.65,1.36-2V25.38Z" transform="translate(-8.29 -22.12)"/><path class="cls-1" d="M207.15,41.28c0,13.23-3.64,16.88-10.33,16.88h-2.61V69.57H179.72V25.38h16.71C203.64,25.38,207.15,28.06,207.15,41.28Zm-14.42-4.85V47.76h.91c1.24,0,1.8-1,1.8-2.2V38.17a1.64,1.64,0,0,0-1.8-1.74Z" transform="translate(-8.29 -22.12)"/><path class="cls-1" d="M222.36,56.72h7.4V69.57h-21V25.38h21v12h-7.4V42h6.55v9.62h-6.55Z" transform="translate(-8.29 -22.12)"/><path class="cls-1" d="M260.89,69.57H247.81l-2.7-20.83h-.91l.91,20.83H231.52V25.37h20c7.1,0,8.43,7.75,8.43,11.4,0,4.84-1.65,8.57-5.55,9.7h3.13ZM247.24,38.68c0-1-.45-2.26-1.86-2.26h-.85v6.83h.82c1.46,0,1.89-1.43,1.89-2.34Z" transform="translate(-8.29 -22.12)"/><path class="cls-1" d="M290.88,53h-2.72V69.57H274.57V25.38h13.59V42h2.72V25.38h13.58V69.57H290.88Z" transform="translate(-8.29 -22.12)"/><path class="cls-1" d="M334.09,25.38l0,30.54c-.06,9.36-4.48,14.11-13.13,14.3-9.49.26-14.29-4.55-14.36-14.3l0-30.54H319V57.16c0,1.36.39,2.08,1.36,2s1.35-.65,1.35-2V25.38Z" transform="translate(-8.29 -22.12)"/><path class="cls-1" d="M373.61,25.38V69.57H361.72l2.14-27.23H363l-.9,8.06-3.5,19.17h-7.27l-3.5-19.17-.9-8.06H346l2.14,27.23H336.24V25.38h17.22l1,25h.91l1-25Z" transform="translate(-8.29 -22.12)"/><path class="cls-1" d="M391.57,69.57l-.41-10.4h-2.75L388,69.57H375.16l2.34-44.19h24.57l2.34,44.19Zm-.66-21.45-.58-12.41h-1.08l-.59,12.41Z" transform="translate(-8.29 -22.12)"/><path class="cls-1" d="M435.58,25.37v44.2h-15l-3.5-19.17-.89-8.06h-.9l2.13,27.23H406V25.37h15l3.5,19.17.89,8.06h.91l-2.14-27.23Z" transform="translate(-8.29 -22.12)"/><path class="cls-1" d="M149,108.09c-.06,8.13-3.18,12.35-9.36,12.48H121.2V76.38H140c6,0,8.37,4.8,8.37,10.83,0,7.8-4.35,10-4.35,10C147.46,98.61,149.09,102.25,149,108.09ZM137.5,89.69c0-1-.46-2.27-1.86-2.27h-.85v5.93h.82c1.46,0,1.89-1.43,1.89-2.34Zm0,15.27c0-1-.46-2.27-1.86-2.27h-.85v6.83h.82c1.46,0,1.89-1.43,1.89-2.33Z" transform="translate(-8.29 -22.12)"/><path class="cls-1" d="M164.19,107.72h7.4v12.85h-21V76.38h21v12h-7.4V93h6.56v9.62h-6.56Z" transform="translate(-8.29 -22.12)"/><path class="cls-1" d="M203,76.37v44.2H188l-3.5-19.17-.9-8.06h-.9l2.14,27.23H173.35V76.37h15l3.5,19.17.9,8.06h.9l-2.14-27.23Z" transform="translate(-8.29 -22.12)"/><path class="cls-1" d="M232.17,98.93l0,8c-.07,9.36-4.49,14.11-13.13,14.3-9.49.26-14.3-4.55-14.37-14.3l.07-16.31c.19-9.94,4.94-15,14.3-14.88,9-.07,13.32,4.94,13.19,14.94l0,5.55h-12.4V88.66c0-1.3-.49-1.89-1.36-1.89s-1.35.72-1.35,2.09v19.3c0,1.36.39,2.08,1.35,2s1.36-.65,1.36-2V98.93Z" transform="translate(-8.29 -22.12)"/><path class="cls-1" d="M250.14,104h-2.72v16.57H233.83V76.38h13.59V93h2.72V76.38h13.58v44.19H250.14Z" transform="translate(-8.29 -22.12)"/><path class="cls-1" d="M303.19,76.38v44.19H291.3l2.14-27.23h-.9l-.9,8.06-3.49,19.17h-7.28l-3.49-19.17-.91-8.06h-.9l2.15,27.23h-11.9V76.38H283l1,25h.9l1-25Z" transform="translate(-8.29 -22.12)"/><path class="cls-1" d="M321.15,120.57l-.41-10.4H318l-.41,10.4H304.74l2.34-44.19h24.57L334,120.57Zm-.65-21.45-.59-12.41h-1.08l-.59,12.41Z" transform="translate(-8.29 -22.12)"/><path class="cls-1" d="M364.91,120.57H351.83l-2.71-20.83h-.9l.9,20.83H335.54V76.37h20c7.1,0,8.43,7.75,8.43,11.4,0,4.84-1.65,8.57-5.55,9.7h3.13ZM351.25,89.68c0-1-.45-2.26-1.85-2.26h-.85v6.83h.82c1.46,0,1.88-1.43,1.88-2.34Z" transform="translate(-8.29 -22.12)"/><path class="cls-1" d="M396,76.38l-5.2,21.06,2.45,0,2.81,23.1H383l-2.71-20.83h-.9l.9,20.83H366.69V76.38h13.58V91h.91l1.69-14.62Z" transform="translate(-8.29 -22.12)"/></g></svg>